<svg xmlns="http://www.w3.org/2000/svg" enable-background="new 0 0 512 512" viewBox="0 0 512 512" id="checkout"><polygon fill="#66cdf2" points="421.9 357.2 168.5 357.2 134.3 154.6 480.5 154.6"></polygon><path fill="#f2f2f3" d="M414.7,412.1H154c-17.9,0-32.5-14.6-32.5-32.5s14.6-32.5,32.5-32.5h3.3l-31.5-199.8L116.5,96H40.4
			c-4.9,0-8.9-4-8.9-8.9s4-8.9,8.9-8.9H124c4.3,0,8,3.1,8.8,7.3l10.6,58.8l33.1,210.3c0.4,2.6-0.3,5.2-2,7.2s-4.2,3.1-6.8,3.1H154
			c-8.1,0-14.7,6.6-14.7,14.7s6.6,14.7,14.7,14.7h260.6c4.9,0,8.9,4,8.9,8.9S419.6,412.1,414.7,412.1z"></path><circle cx="209.1" cy="402.8" r="33.9" fill="#242456"></circle><circle cx="209.1" cy="402.8" r="16.2" fill="#e6e6e6"></circle><circle cx="382.1" cy="402.8" r="33.9" fill="#242456"></circle><circle cx="382.1" cy="402.8" r="16.2" fill="#e6e6e6"></circle><g><path fill="#f2f2f3" d="M287.3,290.9c-0.5,0-0.9,0-1.4-0.1c-2.5-0.4-4.8-1.7-6.3-3.8l-26.9-36.8c-3.1-4.2-2.2-10.2,2.1-13.3
			c4.2-3.1,10.2-2.2,13.3,2.1l21.2,29l59.3-45.2c4.2-3.2,10.1-2.4,13.3,1.8c3.2,4.2,2.4,10.1-1.8,13.3l-67,51.1
			C291.4,290.3,289.4,290.9,287.3,290.9z"></path></g><path fill="#ef4646" d="M107.7,98H47.9c-1.7,0-3-1.3-3-3V78.3c0-1.7,1.3-3,3-3h59.7c1.7,0,3,1.3,3,3V95C110.7,96.7,109.3,98,107.7,98z
		"></path></svg>